<?xml version="1.0" encoding="UTF-8" standalone="no"?>
<!-- Uploaded to: SVG Repo, www.svgrepo.com, Generator: SVG Repo Mixer Tools -->

<svg
   width="800px"
   height="800px"
   viewBox="0 0 24 24"
   fill="none"
   version="1.1"
   id="svg1"
   sodipodi:docname="enerleaf.svg"
   inkscape:version="1.3.2 (091e20ef0f, 2023-11-25, custom)"
   xmlns:inkscape="http://www.inkscape.org/namespaces/inkscape"
   xmlns:sodipodi="http://sodipodi.sourceforge.net/DTD/sodipodi-0.dtd"
   xmlns:xlink="http://www.w3.org/1999/xlink"
   xmlns="http://www.w3.org/2000/svg"
   xmlns:svg="http://www.w3.org/2000/svg">
  <defs
     id="defs1">
    <linearGradient
       id="linearGradient2"
       inkscape:collect="always">
      <stop
         style="stop-color:#7bcb84;stop-opacity:1;"
         offset="0"
         id="stop2" />
      <stop
         style="stop-color:#92b9d8;stop-opacity:1;"
         offset="1"
         id="stop3" />
    </linearGradient>
    <linearGradient
       inkscape:collect="always"
       xlink:href="#linearGradient2"
       id="linearGradient3"
       x1="-0.045683261"
       y1="-0.0051641949"
       x2="24.006355"
       y2="24.002384"
       gradientUnits="userSpaceOnUse"
       gradientTransform="translate(2.7908458,0.03456648)" />
  </defs>
  <sodipodi:namedview
     id="namedview1"
     pagecolor="#ffffff"
     bordercolor="#000000"
     borderopacity="0.25"
     inkscape:showpageshadow="2"
     inkscape:pageopacity="0.0"
     inkscape:pagecheckerboard="0"
     inkscape:deskcolor="#d1d1d1"
     inkscape:zoom="1.247181"
     inkscape:cx="383.66524"
     inkscape:cy="411.32762"
     inkscape:window-width="2560"
     inkscape:window-height="1600"
     inkscape:window-x="0"
     inkscape:window-y="0"
     inkscape:window-maximized="1"
     inkscape:current-layer="svg1" />
  <path
     id="Vector"
     style="color:#000000;fill:url(#linearGradient3);fill-opacity:1;stroke-linecap:round;stroke-linejoin:round;-inkscape-stroke:none"
     d="M 7.3001352,0.99648861 C 6.9211096,0.99631201 6.5745401,1.2104452 6.4051156,1.5494964 L 1.4051352,11.549457 c -0.332336,0.665068 0.1514803,1.447378 0.8949609,1.447031 h 4.6560352 l -2.6139844,8.713008 c -0.313052,1.039574 1.0220592,1.762966 1.7219531,0.932988 1.3062602,-1.401473 2.4390535,-2.996031 3.7892578,-4.348125 3.5519212,1.808618 7.0544322,1.431889 9.4003712,-0.914062 2.511392,-2.511406 3.750893,-6.859951 3.384785,-12.3515623 -0.03321,-0.5001298 -0.43151,-0.8984311 -0.93164,-0.9316406 -3.023376,-0.2015635 -5.697613,0.08607 -7.912266,0.8021484 L 15.168104,2.4964886 C 15.553445,1.829062 15.070774,0.99496601 14.300096,0.99648861 Z M 7.9181234,2.9964691 h 4.6579686 l -1.96793,3.4426758 C 10.151022,6.7575432 9.7320871,7.1050358 9.355311,7.4818207 8.3630023,8.4741524 7.7241819,9.6739911 7.4525375,10.996449 H 3.9181039 Z M 19.784881,6.089516 c 0.279328,-0.00171 0.563258,0.00141 0.851661,0.00949 0.129237,4.614524 -1.013834,8.084155 -2.796856,9.867187 -1.658837,1.658847 -3.821488,2.031763 -6.496113,0.839883 l 2.810566,-2.8125 c 0.39045,-0.390512 0.39045,-1.02359 0,-1.414102 -0.390511,-0.390449 -1.02359,-0.390449 -1.414102,0 L 9.9295297,15.390043 C 9.0679556,13.455527 8.6946364,10.970687 10.769354,8.8959222 11.539465,8.1257932 14.086881,6.1243624 19.784881,6.089516 Z"
     sodipodi:nodetypes="ccccccccscccccccccscccscscccccss" />
</svg>
