<?xml version="1.0" encoding="UTF-8" standalone="no"?>
<svg
   width="128"
   height="128"
   viewBox="0 0 370 66.81352213577136"
   class="looka-1j8o68f"
   version="1.1"
   id="svg27"
   sodipodi:docname="energrow_favicon.svg"
   inkscape:version="1.3.2 (091e20ef0f, 2023-11-25, custom)"
   xmlns:inkscape="http://www.inkscape.org/namespaces/inkscape"
   xmlns:sodipodi="http://sodipodi.sourceforge.net/DTD/sodipodi-0.dtd"
   xmlns:xlink="http://www.w3.org/1999/xlink"
   xmlns="http://www.w3.org/2000/svg"
   xmlns:svg="http://www.w3.org/2000/svg"
   xmlns:i="http://ns.adobe.com/AdobeIllustrator/10.0/">
  <sodipodi:namedview
     id="namedview27"
     pagecolor="#ffffff"
     bordercolor="#000000"
     borderopacity="0.25"
     inkscape:showpageshadow="2"
     inkscape:pageopacity="0.0"
     inkscape:pagecheckerboard="0"
     inkscape:deskcolor="#d1d1d1"
     inkscape:zoom="3.324368"
     inkscape:cx="246.66343"
     inkscape:cy="-11.129935"
     inkscape:window-width="2560"
     inkscape:window-height="1600"
     inkscape:window-x="0"
     inkscape:window-y="0"
     inkscape:window-maximized="1"
     inkscape:current-layer="SvgjsG1017" />
  <defs
     id="SvgjsDefs1015">
    <linearGradient
       id="linearGradient47"
       inkscape:collect="always">
      <stop
         style="stop-color:#7bcb84;stop-opacity:1;"
         offset="0"
         id="stop47" />
      <stop
         style="stop-color:#92b9d8;stop-opacity:1;"
         offset="1"
         id="stop48" />
    </linearGradient>
    <linearGradient
       id="SvgjsLinearGradient1021">
      <stop
         id="SvgjsStop1022"
         stop-color="#006838"
         offset="0" />
      <stop
         id="SvgjsStop1023"
         stop-color="#96cf24"
         offset="1" />
    </linearGradient>
    <linearGradient
       inkscape:collect="always"
       xlink:href="#linearGradient47"
       id="linearGradient48"
       x1="-110.50808"
       y1="2.292398"
       x2="242.54153"
       y2="65.433945"
       gradientUnits="userSpaceOnUse" />
    <linearGradient
       inkscape:collect="always"
       xlink:href="#linearGradient47"
       id="linearGradient27"
       gradientUnits="userSpaceOnUse"
       x1="-110.50808"
       y1="2.292398"
       x2="242.54153"
       y2="65.433945" />
    <linearGradient
       inkscape:collect="always"
       xlink:href="#linearGradient47"
       id="linearGradient28"
       gradientUnits="userSpaceOnUse"
       x1="-110.50808"
       y1="2.292398"
       x2="242.54153"
       y2="65.433945" />
    <linearGradient
       inkscape:collect="always"
       xlink:href="#linearGradient47"
       id="linearGradient29"
       gradientUnits="userSpaceOnUse"
       x1="-110.50808"
       y1="2.292398"
       x2="242.54153"
       y2="65.433945" />
    <linearGradient
       inkscape:collect="always"
       xlink:href="#linearGradient47"
       id="linearGradient30"
       gradientUnits="userSpaceOnUse"
       x1="-110.50808"
       y1="2.292398"
       x2="242.54153"
       y2="65.433945" />
    <linearGradient
       inkscape:collect="always"
       xlink:href="#linearGradient47"
       id="linearGradient31"
       gradientUnits="userSpaceOnUse"
       x1="-110.50808"
       y1="2.292398"
       x2="242.54153"
       y2="65.433945" />
    <linearGradient
       inkscape:collect="always"
       xlink:href="#linearGradient47"
       id="linearGradient32"
       gradientUnits="userSpaceOnUse"
       x1="-110.50808"
       y1="2.292398"
       x2="242.54153"
       y2="65.433945" />
    <linearGradient
       inkscape:collect="always"
       xlink:href="#linearGradient47"
       id="linearGradient33"
       gradientUnits="userSpaceOnUse"
       x1="-110.50808"
       y1="2.292398"
       x2="242.54153"
       y2="65.433945" />
    <linearGradient
       inkscape:collect="always"
       xlink:href="#linearGradient47"
       id="linearGradient34"
       gradientUnits="userSpaceOnUse"
       x1="-110.50808"
       y1="2.292398"
       x2="242.54153"
       y2="65.433945" />
    <linearGradient
       inkscape:collect="always"
       xlink:href="#linearGradient47"
       id="linearGradient35"
       gradientUnits="userSpaceOnUse"
       x1="-110.50808"
       y1="2.292398"
       x2="242.54153"
       y2="65.433945" />
    <linearGradient
       inkscape:collect="always"
       xlink:href="#linearGradient47"
       id="linearGradient36"
       gradientUnits="userSpaceOnUse"
       x1="-110.50808"
       y1="2.292398"
       x2="242.54153"
       y2="65.433945" />
    <linearGradient
       inkscape:collect="always"
       xlink:href="#linearGradient47"
       id="linearGradient37"
       gradientUnits="userSpaceOnUse"
       x1="-110.50808"
       y1="2.292398"
       x2="242.54153"
       y2="65.433945" />
    <linearGradient
       inkscape:collect="always"
       xlink:href="#linearGradient47"
       id="linearGradient38"
       gradientUnits="userSpaceOnUse"
       x1="-110.50808"
       y1="2.292398"
       x2="242.54153"
       y2="65.433945" />
    <linearGradient
       inkscape:collect="always"
       xlink:href="#linearGradient47"
       id="linearGradient39"
       gradientUnits="userSpaceOnUse"
       x1="-110.50808"
       y1="2.292398"
       x2="242.54153"
       y2="65.433945" />
    <linearGradient
       inkscape:collect="always"
       xlink:href="#linearGradient47"
       id="linearGradient40"
       gradientUnits="userSpaceOnUse"
       x1="-110.50808"
       y1="2.292398"
       x2="242.54153"
       y2="65.433945" />
    <linearGradient
       inkscape:collect="always"
       xlink:href="#linearGradient47"
       id="linearGradient41"
       gradientUnits="userSpaceOnUse"
       x1="-110.50808"
       y1="2.292398"
       x2="242.54153"
       y2="65.433945" />
    <linearGradient
       inkscape:collect="always"
       xlink:href="#linearGradient47"
       id="linearGradient42"
       gradientUnits="userSpaceOnUse"
       x1="-110.50808"
       y1="2.292398"
       x2="242.54153"
       y2="65.433945" />
    <linearGradient
       inkscape:collect="always"
       xlink:href="#linearGradient47"
       id="linearGradient43"
       gradientUnits="userSpaceOnUse"
       x1="-110.50808"
       y1="2.292398"
       x2="242.54153"
       y2="65.433945" />
    <linearGradient
       inkscape:collect="always"
       xlink:href="#linearGradient47"
       id="linearGradient44"
       gradientUnits="userSpaceOnUse"
       x1="-110.50808"
       y1="2.292398"
       x2="242.54153"
       y2="65.433945" />
    <linearGradient
       inkscape:collect="always"
       xlink:href="#linearGradient47"
       id="linearGradient45"
       gradientUnits="userSpaceOnUse"
       x1="-110.50808"
       y1="2.292398"
       x2="242.54153"
       y2="65.433945" />
    <linearGradient
       inkscape:collect="always"
       xlink:href="#linearGradient47"
       id="linearGradient46"
       gradientUnits="userSpaceOnUse"
       x1="-110.50808"
       y1="2.292398"
       x2="242.54153"
       y2="65.433945" />
    <linearGradient
       inkscape:collect="always"
       xlink:href="#linearGradient47"
       id="linearGradient49"
       gradientUnits="userSpaceOnUse"
       x1="-110.50808"
       y1="2.292398"
       x2="242.54153"
       y2="65.433945" />
    <linearGradient
       inkscape:collect="always"
       xlink:href="#linearGradient47"
       id="linearGradient50"
       gradientUnits="userSpaceOnUse"
       x1="-110.50808"
       y1="2.292398"
       x2="242.54153"
       y2="65.433945" />
    <linearGradient
       inkscape:collect="always"
       xlink:href="#linearGradient47"
       id="linearGradient51"
       gradientUnits="userSpaceOnUse"
       x1="-110.50808"
       y1="2.292398"
       x2="242.54153"
       y2="65.433945" />
    <linearGradient
       inkscape:collect="always"
       xlink:href="#linearGradient47"
       id="linearGradient52"
       gradientUnits="userSpaceOnUse"
       x1="-110.50808"
       y1="2.292398"
       x2="242.54153"
       y2="65.433945" />
    <linearGradient
       inkscape:collect="always"
       xlink:href="#linearGradient47"
       id="linearGradient53"
       gradientUnits="userSpaceOnUse"
       x1="-110.50808"
       y1="2.292398"
       x2="242.54153"
       y2="65.433945" />
    <linearGradient
       inkscape:collect="always"
       xlink:href="#linearGradient47"
       id="linearGradient54"
       gradientUnits="userSpaceOnUse"
       x1="-110.50808"
       y1="2.292398"
       x2="242.54153"
       y2="65.433945" />
    <linearGradient
       inkscape:collect="always"
       xlink:href="#linearGradient47"
       id="linearGradient55"
       gradientUnits="userSpaceOnUse"
       x1="-110.50808"
       y1="2.292398"
       x2="242.54153"
       y2="65.433945" />
  </defs>
  <g
     id="SvgjsG1017"
     featurekey="nameFeature-0"
     transform="matrix(1.0479161984281513,0,0,1.0479161984281513,116.17196225506142,-1.9322320848479535)"
     fill="url(#SvgjsLinearGradient1021)"
     style="fill:url(#linearGradient48);fill-opacity:1">
    <g
       i:extraneous="self"
       id="g26"
       style="fill:url(#linearGradient55);fill-opacity:1"
       transform="matrix(3.5285771,0,0,3.5285771,-109.56271,-146.84142)">
      <g
         id="g25"
         style="fill:url(#linearGradient54);fill-opacity:1">
        <path
           d="m 47,48.3 c 3.9,2.7 7.8,5.3 11.7,8 2.2,-0.8 4.3,-1.7 6.4,-2.5 -3.6,-2.5 -7.2,-4.9 -10.8,-7.4 -2.5,0.7 -4.9,1.3 -7.3,1.9 z"
           id="path1"
           style="fill:url(#linearGradient27);fill-opacity:1" />
        <path
           d="m 21.4,24 c -3.2,0.1 -6.4,0.2 -9.6,0.3 3.9,2.7 7.8,5.3 11.7,8 2.9,-0.3 5.8,-0.6 8.7,-0.9 C 28.6,28.9 25,26.4 21.4,24 Z"
           id="path2"
           style="fill:url(#linearGradient28);fill-opacity:1" />
        <path
           d="m 43.7,39.2 c -2.7,0.5 -5.3,0.9 -8,1.4 3.5,2.4 7,4.8 10.5,7.2 2.4,-0.6 4.8,-1.3 7.3,-1.9 -3.3,-2.3 -6.6,-4.5 -9.8,-6.7 z"
           id="path3"
           style="fill:url(#linearGradient29);fill-opacity:1" />
        <path
           d="m 33,31.9 c -2.9,0.3 -5.8,0.6 -8.7,0.9 3.5,2.4 7,4.8 10.5,7.1 2.7,-0.5 5.3,-0.9 8,-1.4 -3.3,-2.2 -6.6,-4.4 -9.8,-6.6 z"
           id="path4"
           style="fill:url(#linearGradient30);fill-opacity:1" />
        <path
           d="m 39.5,30.6 c -1,-0.7 -1.9,-1.3 -2.7,-1.9 -2.3,-1.6 -4.5,-3.1 -6.8,-4.7 -0.2,-0.1 -0.7,-0.3 -0.9,-0.3 -2.1,0 -4.1,0.1 -6.2,0.2 3.6,2.4 7.1,4.8 10.7,7.3 1.8,-0.2 3.8,-0.4 5.9,-0.6 z"
           id="path5"
           style="fill:url(#linearGradient31);fill-opacity:1" />
        <path
           d="m 69.8,51.3 c -3,-2 -5.9,-4 -8.9,-6.1 -0.2,-0.1 -0.4,-0.2 -0.6,-0.4 -1.7,0.4 -3.4,0.9 -5,1.3 3.6,2.4 7.1,4.8 10.7,7.3 1.3,-0.5 2.6,-1 3.9,-1.5 0.4,-0.2 0.3,-0.3 -0.1,-0.6 z"
           id="path6"
           style="fill:url(#linearGradient32);fill-opacity:1" />
        <path
           d="m 71.3,51.3 c 1.4,-0.5 2.7,-1.1 4.1,-1.6 0.4,-0.2 0.5,-0.3 0,-0.6 -2.8,-1.9 -5.5,-3.7 -8.2,-5.6 -0.2,-0.1 -0.4,-0.2 -0.6,-0.4 -1.8,0.5 -3.5,0.9 -5.2,1.4 3.3,2.3 6.5,4.6 9.9,6.8 z"
           id="path7"
           style="fill:url(#linearGradient33);fill-opacity:1" />
        <path
           d="m 37.4,23.5 c -2.2,0.1 -4.4,0.1 -6.6,0.2 3.3,2.3 6.6,4.5 9.9,6.8 2.1,-0.2 4.1,-0.4 6.3,-0.7 -3,-2.1 -6,-4.1 -9,-6.1 -0.2,-0.1 -0.5,-0.2 -0.6,-0.2 z"
           id="path8"
           style="fill:url(#linearGradient34);fill-opacity:1" />
        <path
           d="m 58.8,44.5 c 0.6,-0.1 0.6,-0.3 0.1,-0.6 -2.7,-1.8 -5.4,-3.7 -8.1,-5.5 -0.2,-0.1 -0.4,-0.2 -0.6,-0.4 -1.9,0.3 -3.7,0.7 -5.5,1 3.2,2.2 6.4,4.4 9.7,6.6 1.5,-0.4 2.9,-0.8 4.4,-1.1 z"
           id="path9"
           style="fill:url(#linearGradient35);fill-opacity:1" />
        <path
           d="m 34.3,31.8 c 3.3,2.2 6.4,4.4 9.6,6.6 1.8,-0.3 3.6,-0.6 5.5,-1 -3.1,-2.1 -6.1,-4.2 -9.2,-6.3 -2,0.3 -3.9,0.5 -5.9,0.7 z"
           id="path10"
           style="fill:url(#linearGradient36);fill-opacity:1" />
        <path
           d="m 60.5,44 c 1.8,-0.5 3.5,-0.9 5.2,-1.4 -2.9,-2 -5.7,-3.9 -8.5,-5.8 -1.9,0.3 -3.8,0.7 -5.7,1 3,2.1 6,4.1 9,6.2 z"
           id="path11"
           style="fill:url(#linearGradient37);fill-opacity:1" />
        <path
           d="m 50.6,37.2 c 1.9,-0.3 3.8,-0.7 5.7,-1 -2.8,-1.9 -5.7,-3.9 -8.5,-5.8 -2.1,0.2 -4.1,0.4 -6.2,0.7 3,2 6,4 9,6.1 z"
           id="path12"
           style="fill:url(#linearGradient38);fill-opacity:1" />
        <path
           d="m 71.5,40.3 c 2.7,1.8 5.4,3.7 8,5.5 1.5,-0.6 2.9,-1.1 4.4,-1.7 -2.5,-1.7 -5,-3.4 -7.4,-5.1 -1.6,0.4 -3.3,0.8 -5,1.3 z"
           id="path13"
           style="fill:url(#linearGradient39);fill-opacity:1" />
        <path
           d="m 53.9,23.5 c -2.2,0.1 -4.4,0.2 -6.6,0.2 2.7,1.9 5.4,3.7 8,5.5 2,-0.2 4,-0.4 6,-0.6 -2.5,-1.8 -4.9,-3.4 -7.4,-5.1 z"
           id="path14"
           style="fill:url(#linearGradient40);fill-opacity:1" />
        <path
           d="M 93.4,41 66.2,22.6 C 65.7,22.3 65.3,22 65.3,22 c 0,0 -0.1,0 -0.1,0 0,0 -0.5,0 -1.1,0 l -19,0.5 c -0.6,0 -1.4,0 -1.7,0 -0.3,0 -0.4,0.2 -0.1,0.4 0.3,0.2 0.9,0.6 1.4,1 l 16.6,11.4 c 0,1 0,1.8 0,2.2 l -22,-14.8 c -0.7,-0.5 -1.3,-0.9 -1.4,-0.9 -0.1,0 -0.1,-0.1 -0.2,-0.1 -0.1,0 -0.8,0 -1.6,0 L 8.5,22.5 c -0.8,0 -2,0.1 -2.5,0.1 -0.5,0 -0.6,0.3 -0.2,0.6 0.4,0.3 1.3,0.9 2,1.4 l 21.4,14.8 c 0,8.9 0,26.4 0,37 -3.8,1.8 -6.3,3 -6.4,3.1 -0.9,0.8 5.3,1.3 6.4,1.1 C 30.4,80.2 78.2,55 86.8,50 H 86 c 0,0 -6,2.9 -13,6.5 v -3.1 l 5.9,-2.7 c 0.8,-0.3 0.8,-1 0.1,-1.5 l -6,-4.1 v -2 l 5.6,4 c 0.5,0.3 0.8,0.6 0.9,0.7 0.1,0 0.5,-0.1 1,-0.3 L 93.4,42 c 0.5,-0.3 0.5,-0.7 0,-1 z M 40.8,71 C 38,72.3 35,73.5 33,74.6 V 41.8 l 7.7,5.4 c 0.1,9.1 0.1,14.7 0.1,23.8 z M 45,69.3 V 49.7 l 12.2,8.7 c 0.7,0.5 1.2,0.9 1.2,1 0.1,0.1 0.7,-0.2 1.5,-0.5 l 1.2,-0.6 0.3,3.4 C 55.9,64.2 50,66.8 45,69.3 Z M 70.4,57.6 c -2.1,1 -4.4,2 -6.4,3.1 v -3.3 l 6.5,-2.9 z M 77,49 c 0.7,0.5 0.6,1.1 -0.1,1.4 l -16.9,7 c -0.8,0.3 -2,0.2 -2.7,-0.3 L 10.2,24.6 C 9.5,24.1 9.6,23.7 10.5,23.7 L 36,22.6 c 0.8,0 2.1,0.3 2.8,0.8 z M 61.2,37.5 c 0,-0.5 0,-1.1 0,-1.7 0,0.4 0,1 0,1.7 z M 64,39 v -2.2 l 6.9,4.8 -0.2,2 z m 28.2,2.7 -11.7,4.8 C 80,46.7 79.1,46.6 78.7,46.3 L 46.1,23.9 c -0.5,-0.3 -0.4,-0.6 0.2,-0.6 L 64,22.5 c 0.6,0 1.5,0.2 1.9,0.5 l 26.4,17.7 c 0.5,0.4 0.4,0.8 -0.1,1 z"
           id="path15"
           style="fill:url(#linearGradient41);fill-opacity:1" />
        <path
           d="m 69.3,34 c -1.9,0.3 -3.7,0.7 -5.5,1 2.4,1.7 4.8,3.3 7.2,4.9 1.7,-0.4 3.3,-0.9 5,-1.3 C 73.7,37 71.5,35.5 69.3,34 Z"
           id="path16"
           style="fill:url(#linearGradient42);fill-opacity:1" />
        <path
           d="m 61.9,28.9 c -2,0.2 -4,0.4 -6,0.6 2.4,1.7 4.8,3.3 7.2,4.9 1.9,-0.3 3.7,-0.6 5.5,-1 -2.2,-1.4 -4.5,-2.9 -6.7,-4.5 z"
           id="path17"
           style="fill:url(#linearGradient43);fill-opacity:1" />
        <path
           d="m 66.4,28 c -0.7,-0.5 -1.3,-0.9 -1.9,-1.3 -1.6,-1.1 -3.1,-2.1 -4.7,-3.2 -0.1,-0.1 -0.5,-0.2 -0.7,-0.2 -1.4,0 -2.8,0.1 -4.3,0.1 2.5,1.7 4.9,3.3 7.4,5 1.4,-0.1 2.7,-0.2 4.2,-0.4 z"
           id="path18"
           style="fill:url(#linearGradient44);fill-opacity:1" />
        <path
           d="M 87.3,42.3 C 85.2,40.9 83.2,39.5 81.1,38.1 81,38 80.8,37.9 80.7,37.8 c -1.2,0.3 -2.3,0.6 -3.5,0.9 2.5,1.7 4.9,3.3 7.4,5 0.9,-0.4 1.8,-0.7 2.7,-1 0.3,-0.1 0.3,-0.2 0,-0.4 z"
           id="path19"
           style="fill:url(#linearGradient45);fill-opacity:1" />
        <path
           d="M 91.1,40.9 C 89.2,39.6 87.3,38.3 85.4,37 85.3,36.9 85.1,36.8 85,36.7 c -1.2,0.3 -2.4,0.6 -3.6,0.9 2.3,1.6 4.6,3.1 6.9,4.7 1,-0.4 1.9,-0.7 2.8,-1.1 0.3,0 0.3,-0.1 0,-0.3 z"
           id="path20"
           style="fill:url(#linearGradient46);fill-opacity:1" />
        <path
           d="m 71.5,27.5 c -2.1,-1.4 -4.1,-2.8 -6.2,-4.2 -0.1,-0.1 -0.3,-0.1 -0.4,-0.1 -1.5,0 -3,0.1 -4.6,0.2 2.3,1.6 4.5,3.1 6.9,4.7 1.4,-0.3 2.9,-0.5 4.3,-0.6 z"
           id="path21"
           style="fill:url(#linearGradient49);fill-opacity:1" />
        <path
           d="m 79.7,37.6 c 0.4,-0.1 0.4,-0.2 0.1,-0.4 -1.9,-1.3 -3.7,-2.5 -5.6,-3.8 -0.1,-0.1 -0.3,-0.2 -0.4,-0.3 -1.3,0.2 -2.5,0.4 -3.8,0.7 2.2,1.5 4.4,3 6.7,4.6 1,-0.3 2,-0.6 3,-0.8 z"
           id="path22"
           style="fill:url(#linearGradient50);fill-opacity:1" />
        <path
           d="m 62.8,28.9 c 2.2,1.5 4.4,3 6.7,4.5 1.3,-0.2 2.5,-0.4 3.8,-0.7 -2.1,-1.4 -4.2,-2.9 -6.3,-4.3 -1.5,0.2 -2.8,0.3 -4.2,0.5 z"
           id="path23"
           style="fill:url(#linearGradient51);fill-opacity:1" />
        <path
           d="m 80.9,37.3 c 1.2,-0.3 2.4,-0.6 3.6,-0.9 -2,-1.4 -3.9,-2.7 -5.9,-4 -1.3,0.2 -2.6,0.5 -4,0.7 2.1,1.3 4.2,2.7 6.3,4.2 z"
           id="path24"
           style="fill:url(#linearGradient52);fill-opacity:1" />
        <path
           d="m 74,32.6 c 1.3,-0.2 2.6,-0.5 3.9,-0.7 -2,-1.3 -3.9,-2.7 -5.9,-4 -1.4,0.1 -2.8,0.3 -4.3,0.5 2.2,1.4 4.2,2.8 6.3,4.2 z"
           id="path25"
           style="fill:url(#linearGradient53);fill-opacity:1" />
      </g>
    </g>
  </g>
</svg>
