<?xml version="1.0" encoding="UTF-8" standalone="no"?>
<!-- Uploaded to: SVG Repo, www.svgrepo.com, Generator: SVG Repo Mixer Tools -->

<svg
   fill="#000000"
   height="800px"
   width="800px"
   version="1.1"
   id="Layer_1"
   viewBox="0 0 512 512"
   xml:space="preserve"
   sodipodi:docname="greenhouse.svg"
   inkscape:version="1.3.2 (091e20ef0f, 2023-11-25, custom)"
   xmlns:inkscape="http://www.inkscape.org/namespaces/inkscape"
   xmlns:sodipodi="http://sodipodi.sourceforge.net/DTD/sodipodi-0.dtd"
   xmlns:xlink="http://www.w3.org/1999/xlink"
   xmlns="http://www.w3.org/2000/svg"
   xmlns:svg="http://www.w3.org/2000/svg"><defs
   id="defs2"><linearGradient
     id="linearGradient2"
     inkscape:collect="always"><stop
       style="stop-color:#7bcb84;stop-opacity:1;"
       offset="0"
       id="stop2" /><stop
       style="stop-color:#92b9d8;stop-opacity:1;"
       offset="1"
       id="stop3" /></linearGradient><linearGradient
     inkscape:collect="always"
     xlink:href="#linearGradient2"
     id="linearGradient3"
     x1="2.2504411"
     y1="-25.57073"
     x2="510.5383"
     y2="483.17786"
     gradientUnits="userSpaceOnUse" /></defs><sodipodi:namedview
   id="namedview2"
   pagecolor="#ffffff"
   bordercolor="#000000"
   borderopacity="0.25"
   inkscape:showpageshadow="2"
   inkscape:pageopacity="0.0"
   inkscape:pagecheckerboard="0"
   inkscape:deskcolor="#d1d1d1"
   inkscape:zoom="0.58060114"
   inkscape:cx="649.32701"
   inkscape:cy="296.24468"
   inkscape:window-width="2560"
   inkscape:window-height="1600"
   inkscape:window-x="0"
   inkscape:window-y="0"
   inkscape:window-maximized="1"
   inkscape:current-layer="g2" />
<g
   transform="translate(1 1)"
   id="g2">
	<g
   id="g1"
   transform="translate(4.9978044e-4,25.862495)"
   style="fill-opacity:1;fill:url(#linearGradient3)">
		<path
   d="M 505.88,166.147 10.83394,4.4505342 C -2.951512,-0.27615335 -0.21465891,6.0518812 -0.97619261,15.606588 L -1,173.827 v 273.067 c 0,5.12 3.413,8.533 8.533,8.533 h 34.133 426.667 34.133 c 5.12,0 8.533,-3.413 8.533,-8.533 V 173.827 c 10e-4,-3.414 -1.706,-5.974 -5.119,-7.68 z M 50.2,438.36 v -17.067 h 409.6 v 17.067 z m 443.733,0 h -17.067 v -25.6 c 0,-5.12 -3.413,-8.533 -8.533,-8.533 h -51.2 v -26.074 c 38.593,-4.198 68.267,-36.547 68.267,-76.326 0,-5.12 -3.413,-8.533 -8.533,-8.533 -24.229,0 -45.696,11.015 -59.733,28.34 v -45.881 c 38.593,-4.198 68.267,-36.547 68.267,-76.326 0,-5.12 -3.413,-8.533 -8.533,-8.533 -24.229,0 -45.696,11.015 -59.733,28.34 v -35.167 c 0,-5.12 -3.413,-8.533 -8.533,-8.533 -5.12,0 -8.533,3.413 -8.533,8.533 v 86.367 c -14.038,-17.326 -35.505,-28.34 -59.733,-28.34 -5.12,0 -8.533,3.413 -8.533,8.533 0,39.779 29.674,72.128 68.267,76.326 v 77.274 H 263.533 v -26.074 c 38.593,-4.198 68.267,-36.547 68.267,-76.326 0,-5.12 -3.413,-8.533 -8.533,-8.533 -24.229,0 -45.696,11.015 -59.733,28.34 v -45.881 c 38.593,-4.198 68.267,-36.547 68.267,-76.326 0,-5.12 -3.413,-8.533 -8.533,-8.533 -24.229,0 -45.696,11.015 -59.733,28.34 v -35.167 c 0,-5.12 -3.413,-8.533 -8.533,-8.533 -5.12,0 -8.533,3.413 -8.533,8.533 v 86.367 c -14.038,-17.326 -35.505,-28.34 -59.733,-28.34 -5.12,0 -8.533,3.413 -8.533,8.533 0,39.779 29.674,72.128 68.267,76.326 v 77.274 H 109.933 v -26.074 c 38.593,-4.198 68.267,-36.547 68.267,-76.326 0,-5.12 -3.413,-8.533 -8.533,-8.533 -24.229,0 -45.696,11.015 -59.733,28.34 v -45.881 c 38.593,-4.198 68.267,-36.547 68.267,-76.326 0,-5.12 -3.413,-8.533 -8.533,-8.533 -24.229,0 -45.696,11.015 -59.733,28.34 v -35.167 c 0,-5.12 -3.413,-8.533 -8.533,-8.533 -5.12,0 -8.533,3.413 -8.533,8.533 v 86.367 c -14.038,-17.326 -35.505,-28.34 -59.733,-28.34 -5.12,0 -8.533,3.413 -8.533,8.533 0,39.779 29.674,72.128 68.267,76.326 v 77.274 h -51.2 c -5.12,0 -8.533,3.413 -8.533,8.533 v 25.6 H 16.067 L 11.753569,18.44258 493.933,178.947 Z m -75.946,-77.653 c 3.413,-25.6 23.893,-45.227 49.493,-49.493 -4.267,25.599 -23.893,45.226 -49.493,49.493 z m 0,-102.4 c 3.413,-25.6 23.893,-45.227 49.493,-49.493 -4.267,25.599 -23.893,45.226 -49.493,49.493 z m -18.774,51.2 c -25.6,-3.413 -45.227,-23.893 -49.493,-49.493 25.6,4.266 45.227,23.893 49.493,49.493 z m -134.826,51.2 c 3.413,-25.6 23.893,-45.227 49.493,-49.493 -4.267,25.599 -23.893,45.226 -49.493,49.493 z m 0,-102.4 c 3.413,-25.6 23.893,-45.227 49.493,-49.493 -4.267,25.599 -23.893,45.226 -49.493,49.493 z m -18.774,51.2 c -25.6,-3.413 -45.227,-23.893 -49.493,-49.493 25.6,4.266 45.227,23.893 49.493,49.493 z m -134.826,51.2 c 3.413,-25.6 23.893,-45.227 49.493,-49.493 -4.267,25.599 -23.893,45.226 -49.493,49.493 z m 0,-102.4 c 3.413,-25.6 23.893,-45.227 49.493,-49.493 -4.267,25.599 -23.893,45.226 -49.493,49.493 z m -18.774,51.2 c -25.6,-3.413 -45.227,-23.893 -49.493,-49.493 25.6,4.266 45.227,23.893 49.493,49.493 z"
   id="path1"
   sodipodi:nodetypes="ccccssccsscccccccccssccssccsscssscssccccssccsscssscssccccssccsscssscssccsscccccccccccccccccccccccccccccccc"
   style="fill-opacity:1;fill:url(#linearGradient3)" />
	</g>
</g>
</svg>
