<?xml version="1.0" encoding="UTF-8" standalone="no"?>
<!-- Uploaded to: SVG Repo, www.svgrepo.com, Generator: SVG Repo Mixer Tools -->

<svg
   width="800px"
   height="800px"
   viewBox="0 0 24 24"
   fill="none"
   version="1.1"
   id="svg1"
   sodipodi:docname="leaf-svgrepo-com.svg"
   inkscape:version="1.3.2 (091e20ef0f, 2023-11-25, custom)"
   xmlns:inkscape="http://www.inkscape.org/namespaces/inkscape"
   xmlns:sodipodi="http://sodipodi.sourceforge.net/DTD/sodipodi-0.dtd"
   xmlns:xlink="http://www.w3.org/1999/xlink"
   xmlns="http://www.w3.org/2000/svg"
   xmlns:svg="http://www.w3.org/2000/svg">
  <defs
     id="defs1">
    <linearGradient
       id="linearGradient2"
       inkscape:collect="always">
      <stop
         style="stop-color:#7bcb84;stop-opacity:1;"
         offset="0"
         id="stop2" />
      <stop
         style="stop-color:#92b9d8;stop-opacity:1;"
         offset="1"
         id="stop3" />
    </linearGradient>
    <linearGradient
       inkscape:collect="always"
       xlink:href="#linearGradient2"
       id="linearGradient3"
       x1="-0.045683261"
       y1="-0.0051641949"
       x2="24.006355"
       y2="24.002384"
       gradientUnits="userSpaceOnUse" />
  </defs>
  <sodipodi:namedview
     id="namedview1"
     pagecolor="#ffffff"
     bordercolor="#000000"
     borderopacity="0.25"
     inkscape:showpageshadow="2"
     inkscape:pageopacity="0.0"
     inkscape:pagecheckerboard="0"
     inkscape:deskcolor="#d1d1d1"
     inkscape:zoom="0.34150139"
     inkscape:cx="445.09335"
     inkscape:cy="506.58651"
     inkscape:window-width="1259"
     inkscape:window-height="1522"
     inkscape:window-x="0"
     inkscape:window-y="0"
     inkscape:window-maximized="1"
     inkscape:current-layer="svg1" />
  <g
     id="Environment / Leaf">
    <path
       style="color:#000000;fill:url(#linearGradient3);stroke-linecap:round;stroke-linejoin:round;-inkscape-stroke:none;fill-opacity:1"
       d="M 18.916016,4.0625 C 13.42445,3.6963863 9.0758119,4.9358486 6.5644531,7.4472656 4.2185868,9.7931863 3.84011,13.295873 5.6484375,16.847656 l -1.3554688,1.353516 a 1,1 0 0 0 0,1.414062 1,1 0 0 0 1.4140625,0.002 L 7.0625,18.259766 c 3.551925,1.80862 7.05445,1.431891 9.400391,-0.914063 2.511394,-2.511408 3.750873,-6.859945 3.384765,-12.3515624 A 1.0001,1.0001 0 0 0 18.916016,4.0625 Z m -1.070313,2.0019531 c 0.129238,4.6145289 -1.013851,8.0841539 -2.796875,9.8671879 -1.658839,1.658848 -3.821466,2.031724 -6.4960936,0.839843 l 2.8105466,-2.8125 a 1,1 0 0 0 0,-1.414062 1,1 0 0 0 -1.4140622,0 L 7.1386719,15.355469 C 5.9478396,12.681661 6.3200232,10.519859 7.9785156,8.8613281 9.7615245,7.0782779 13.231249,5.9352181 17.845703,6.0644531 Z"
       id="Vector" />
  </g>
</svg>
