<?xml version="1.0" encoding="UTF-8" standalone="no"?>
<svg
   width="429"
   height="77.46757026012409"
   viewBox="0 0 370 66.81352213577136"
   class="looka-1j8o68f"
   version="1.1"
   id="svg27"
   sodipodi:docname="test.svg"
   inkscape:version="1.3.2 (091e20ef0f, 2023-11-25, custom)"
   xmlns:inkscape="http://www.inkscape.org/namespaces/inkscape"
   xmlns:sodipodi="http://sodipodi.sourceforge.net/DTD/sodipodi-0.dtd"
   xmlns:xlink="http://www.w3.org/1999/xlink"
   xmlns="http://www.w3.org/2000/svg"
   xmlns:svg="http://www.w3.org/2000/svg"
   xmlns:i="http://ns.adobe.com/AdobeIllustrator/10.0/">
  <sodipodi:namedview
     id="namedview27"
     pagecolor="#ffffff"
     bordercolor="#000000"
     borderopacity="0.25"
     inkscape:showpageshadow="2"
     inkscape:pageopacity="0.0"
     inkscape:pagecheckerboard="0"
     inkscape:deskcolor="#d1d1d1"
     inkscape:zoom="4.613792"
     inkscape:cx="167.86626"
     inkscape:cy="4.9850535"
     inkscape:window-width="2560"
     inkscape:window-height="1600"
     inkscape:window-x="0"
     inkscape:window-y="0"
     inkscape:window-maximized="1"
     inkscape:current-layer="svg27" />
  <defs
     id="SvgjsDefs1015">
    <linearGradient
       id="linearGradient47"
       inkscape:collect="always">
      <stop
         style="stop-color:#7bcb84;stop-opacity:1;"
         offset="0"
         id="stop47" />
      <stop
         style="stop-color:#92b9d8;stop-opacity:1;"
         offset="1"
         id="stop48" />
    </linearGradient>
    <linearGradient
       id="SvgjsLinearGradient1021">
      <stop
         id="SvgjsStop1022"
         stop-color="#006838"
         offset="0" />
      <stop
         id="SvgjsStop1023"
         stop-color="#96cf24"
         offset="1" />
    </linearGradient>
    <linearGradient
       inkscape:collect="always"
       xlink:href="#linearGradient47"
       id="linearGradient48"
       x1="-110.50808"
       y1="2.292398"
       x2="242.54153"
       y2="65.433945"
       gradientUnits="userSpaceOnUse" />
  </defs>
  <g
     id="SvgjsG1017"
     featurekey="nameFeature-0"
     transform="matrix(1.0479161984281513,0,0,1.0479161984281513,116.17196225506142,-1.9322320848479535)"
     fill="url(#SvgjsLinearGradient1021)"
     style="fill:url(#linearGradient48);fill-opacity:1">
    <g
       i:extraneous="self"
       id="g26"
       style="fill:url(#linearGradient48);fill-opacity:1"
       transform="matrix(1.0816767,0,0,1.0816767,-116.86672,-21.628504)">
      <g
         id="g25"
         style="fill-opacity:1;fill:url(#linearGradient48)">
        <path
           d="M47,48.3c3.9,2.7,7.8,5.3,11.7,8c2.2-0.8,4.3-1.7,6.4-2.5c-3.6-2.5-7.2-4.9-10.8-7.4C51.8,47.1,49.4,47.7,47,48.3z"
           id="path1"
           style="fill-opacity:1;fill:url(#linearGradient48)" />
        <path
           d="M21.4,24c-3.2,0.1-6.4,0.2-9.6,0.3c3.9,2.7,7.8,5.3,11.7,8c2.9-0.3,5.8-0.6,8.7-0.9C28.6,28.9,25,26.4,21.4,24z"
           id="path2"
           style="fill-opacity:1;fill:url(#linearGradient48)" />
        <path
           d="M43.7,39.2c-2.7,0.5-5.3,0.9-8,1.4c3.5,2.4,7,4.8,10.5,7.2c2.4-0.6,4.8-1.3,7.3-1.9C50.2,43.6,46.9,41.4,43.7,39.2z"
           id="path3"
           style="fill-opacity:1;fill:url(#linearGradient48)" />
        <path
           d="M33,31.9c-2.9,0.3-5.8,0.6-8.7,0.9c3.5,2.4,7,4.8,10.5,7.1c2.7-0.5,5.3-0.9,8-1.4C39.5,36.3,36.2,34.1,33,31.9z"
           id="path4"
           style="fill-opacity:1;fill:url(#linearGradient48)" />
        <path
           d="M39.5,30.6c-1-0.7-1.9-1.3-2.7-1.9c-2.3-1.6-4.5-3.1-6.8-4.7c-0.2-0.1-0.7-0.3-0.9-0.3c-2.1,0-4.1,0.1-6.2,0.2     c3.6,2.4,7.1,4.8,10.7,7.3C35.4,31,37.4,30.8,39.5,30.6z"
           id="path5"
           style="fill-opacity:1;fill:url(#linearGradient48)" />
        <path
           d="M69.8,51.3c-3-2-5.9-4-8.9-6.1c-0.2-0.1-0.4-0.2-0.6-0.4c-1.7,0.4-3.4,0.9-5,1.3c3.6,2.4,7.1,4.8,10.7,7.3     c1.3-0.5,2.6-1,3.9-1.5C70.3,51.7,70.2,51.6,69.8,51.3z"
           id="path6"
           style="fill-opacity:1;fill:url(#linearGradient48)" />
        <path
           d="M71.3,51.3c1.4-0.5,2.7-1.1,4.1-1.6c0.4-0.2,0.5-0.3,0-0.6c-2.8-1.9-5.5-3.7-8.2-5.6c-0.2-0.1-0.4-0.2-0.6-0.4     c-1.8,0.5-3.5,0.9-5.2,1.4C64.7,46.8,67.9,49.1,71.3,51.3z"
           id="path7"
           style="fill-opacity:1;fill:url(#linearGradient48)" />
        <path
           d="M37.4,23.5c-2.2,0.1-4.4,0.1-6.6,0.2c3.3,2.3,6.6,4.5,9.9,6.8c2.1-0.2,4.1-0.4,6.3-0.7c-3-2.1-6-4.1-9-6.1     C37.8,23.6,37.5,23.5,37.4,23.5z"
           id="path8"
           style="fill-opacity:1;fill:url(#linearGradient48)" />
        <path
           d="M58.8,44.5c0.6-0.1,0.6-0.3,0.1-0.6c-2.7-1.8-5.4-3.7-8.1-5.5c-0.2-0.1-0.4-0.2-0.6-0.4c-1.9,0.3-3.7,0.7-5.5,1     c3.2,2.2,6.4,4.4,9.7,6.6C55.9,45.2,57.3,44.8,58.8,44.5z"
           id="path9"
           style="fill-opacity:1;fill:url(#linearGradient48)" />
        <path
           d="M34.3,31.8c3.3,2.2,6.4,4.4,9.6,6.6c1.8-0.3,3.6-0.6,5.5-1c-3.1-2.1-6.1-4.2-9.2-6.3C38.2,31.4,36.3,31.6,34.3,31.8z"
           id="path10"
           style="fill-opacity:1;fill:url(#linearGradient48)" />
        <path
           d="M60.5,44c1.8-0.5,3.5-0.9,5.2-1.4c-2.9-2-5.7-3.9-8.5-5.8c-1.9,0.3-3.8,0.7-5.7,1C54.5,39.9,57.5,41.9,60.5,44z"
           id="path11"
           style="fill-opacity:1;fill:url(#linearGradient48)" />
        <path
           d="M50.6,37.2c1.9-0.3,3.8-0.7,5.7-1c-2.8-1.9-5.7-3.9-8.5-5.8c-2.1,0.2-4.1,0.4-6.2,0.7C44.6,33.1,47.6,35.1,50.6,37.2z"
           id="path12"
           style="fill-opacity:1;fill:url(#linearGradient48)" />
        <path
           d="M71.5,40.3c2.7,1.8,5.4,3.7,8,5.5c1.5-0.6,2.9-1.1,4.4-1.7c-2.5-1.7-5-3.4-7.4-5.1C74.9,39.4,73.2,39.8,71.5,40.3z"
           id="path13"
           style="fill-opacity:1;fill:url(#linearGradient48)" />
        <path
           d="M53.9,23.5c-2.2,0.1-4.4,0.2-6.6,0.2c2.7,1.9,5.4,3.7,8,5.5c2-0.2,4-0.4,6-0.6C58.8,26.8,56.4,25.2,53.9,23.5z"
           id="path14"
           style="fill-opacity:1;fill:url(#linearGradient48)" />
        <path
           d="M93.4,41L66.2,22.6c-0.5-0.3-0.9-0.6-0.9-0.6c0,0-0.1,0-0.1,0c0,0-0.5,0-1.1,0l-19,0.5c-0.6,0-1.4,0-1.7,0     s-0.4,0.2-0.1,0.4s0.9,0.6,1.4,1l16.6,11.4c0,1,0,1.8,0,2.2L39.3,22.7c-0.7-0.5-1.3-0.9-1.4-0.9s-0.1-0.1-0.2-0.1     c-0.1,0-0.8,0-1.6,0L8.5,22.5c-0.8,0-2,0.1-2.5,0.1c-0.5,0-0.6,0.3-0.2,0.6c0.4,0.3,1.3,0.9,2,1.4l21.4,14.8c0,8.9,0,26.4,0,37     c-3.8,1.8-6.3,3-6.4,3.1c-0.9,0.8,5.3,1.3,6.4,1.1C30.4,80.2,78.2,55,86.8,50H86c0,0-6,2.9-13,6.5v-3.1l5.9-2.7     c0.8-0.3,0.8-1,0.1-1.5l-6-4.1v-2l5.6,4c0.5,0.3,0.8,0.6,0.9,0.7c0.1,0,0.5-0.1,1-0.3L93.4,42C93.9,41.7,93.9,41.3,93.4,41z      M40.8,71C38,72.3,35,73.5,33,74.6V41.8l7.7,5.4C40.8,56.3,40.8,61.9,40.8,71z M45,69.3V49.7l12.2,8.7c0.7,0.5,1.2,0.9,1.2,1     c0.1,0.1,0.7-0.2,1.5-0.5l1.2-0.6l0.3,3.4C55.9,64.2,50,66.8,45,69.3z M70.4,57.6c-2.1,1-4.4,2-6.4,3.1v-3.3l6.5-2.9L70.4,57.6z      M77,49c0.7,0.5,0.6,1.1-0.1,1.4l-16.9,7c-0.8,0.3-2,0.2-2.7-0.3L10.2,24.6c-0.7-0.5-0.6-0.9,0.3-0.9L36,22.6     c0.8,0,2.1,0.3,2.8,0.8L77,49z M61.2,37.5c0-0.5,0-1.1,0-1.7C61.2,36.2,61.2,36.8,61.2,37.5L61.2,37.5z M64,39v-2.2l6.9,4.8     l-0.2,2L64,39z M92.2,41.7l-11.7,4.8c-0.5,0.2-1.4,0.1-1.8-0.2L46.1,23.9c-0.5-0.3-0.4-0.6,0.2-0.6L64,22.5     c0.6,0,1.5,0.2,1.9,0.5l26.4,17.7C92.8,41.1,92.7,41.5,92.2,41.7z"
           id="path15"
           style="fill-opacity:1;fill:url(#linearGradient48)" />
        <path
           d="M69.3,34c-1.9,0.3-3.7,0.7-5.5,1c2.4,1.7,4.8,3.3,7.2,4.9c1.7-0.4,3.3-0.9,5-1.3C73.7,37,71.5,35.5,69.3,34z"
           id="path16"
           style="fill-opacity:1;fill:url(#linearGradient48)" />
        <path
           d="M61.9,28.9c-2,0.2-4,0.4-6,0.6c2.4,1.7,4.8,3.3,7.2,4.9c1.9-0.3,3.7-0.6,5.5-1C66.4,32,64.1,30.5,61.9,28.9z"
           id="path17"
           style="fill-opacity:1;fill:url(#linearGradient48)" />
        <path
           d="M66.4,28c-0.7-0.5-1.3-0.9-1.9-1.3c-1.6-1.1-3.1-2.1-4.7-3.2c-0.1-0.1-0.5-0.2-0.7-0.2c-1.4,0-2.8,0.1-4.3,0.1     c2.5,1.7,4.9,3.3,7.4,5C63.6,28.3,64.9,28.2,66.4,28z"
           id="path18"
           style="fill-opacity:1;fill:url(#linearGradient48)" />
        <path
           d="M87.3,42.3c-2.1-1.4-4.1-2.8-6.2-4.2c-0.1-0.1-0.3-0.2-0.4-0.3c-1.2,0.3-2.3,0.6-3.5,0.9c2.5,1.7,4.9,3.3,7.4,5     c0.9-0.4,1.8-0.7,2.7-1C87.6,42.6,87.6,42.5,87.3,42.3z"
           id="path19"
           style="fill-opacity:1;fill:url(#linearGradient48)" />
        <path
           d="M91.1,40.9c-1.9-1.3-3.8-2.6-5.7-3.9c-0.1-0.1-0.3-0.2-0.4-0.3c-1.2,0.3-2.4,0.6-3.6,0.9c2.3,1.6,4.6,3.1,6.9,4.7     c1-0.4,1.9-0.7,2.8-1.1C91.4,41.2,91.4,41.1,91.1,40.9z"
           id="path20"
           style="fill-opacity:1;fill:url(#linearGradient48)" />
        <path
           d="M71.5,27.5c-2.1-1.4-4.1-2.8-6.2-4.2c-0.1-0.1-0.3-0.1-0.4-0.1c-1.5,0-3,0.1-4.6,0.2c2.3,1.6,4.5,3.1,6.9,4.7     C68.6,27.8,70.1,27.6,71.5,27.5z"
           id="path21"
           style="fill-opacity:1;fill:url(#linearGradient48)" />
        <path
           d="M79.7,37.6c0.4-0.1,0.4-0.2,0.1-0.4c-1.9-1.3-3.7-2.5-5.6-3.8c-0.1-0.1-0.3-0.2-0.4-0.3c-1.3,0.2-2.5,0.4-3.8,0.7     c2.2,1.5,4.4,3,6.7,4.6C77.7,38.1,78.7,37.8,79.7,37.6z"
           id="path22"
           style="fill-opacity:1;fill:url(#linearGradient48)" />
        <path
           d="M62.8,28.9c2.2,1.5,4.4,3,6.7,4.5c1.3-0.2,2.5-0.4,3.8-0.7c-2.1-1.4-4.2-2.9-6.3-4.3C65.5,28.6,64.2,28.7,62.8,28.9z"
           id="path23"
           style="fill-opacity:1;fill:url(#linearGradient48)" />
        <path
           d="M80.9,37.3c1.2-0.3,2.4-0.6,3.6-0.9c-2-1.4-3.9-2.7-5.9-4c-1.3,0.2-2.6,0.5-4,0.7C76.7,34.4,78.8,35.8,80.9,37.3z"
           id="path24"
           style="fill-opacity:1;fill:url(#linearGradient48)" />
        <path
           d="M74,32.6c1.3-0.2,2.6-0.5,3.9-0.7c-2-1.3-3.9-2.7-5.9-4c-1.4,0.1-2.8,0.3-4.3,0.5C69.9,29.8,71.9,31.2,74,32.6z"
           id="path25"
           style="fill-opacity:1;fill:url(#linearGradient48)" />
      </g>
    </g>
    <g
       id="g46"
       style="fill:url(#linearGradient48);fill-opacity:1">
      <path
         d="M20.02 16.934 l-10.469 0 l0 6.4063 l9.2773 0 l0 5.0977 l-9.2773 0 l0 6.3867 l10.469 0 l0 5.1758 l-16.367 0 l0 -28.223 l16.367 0 l0 5.1563 z M46.2942578125 11.777000000000001 l5.8398 0 l0 28.223 l-6.7773 0 l-12.5 -20.176 l0 20.176 l-5.8398 0 l0 -28.223 l6.6992 0 l12.578 20.059 l0 -20.059 z M76.768046875 16.934 l-10.469 0 l0 6.4063 l9.2773 0 l0 5.0977 l-9.2773 0 l0 6.3867 l10.469 0 l0 5.1758 l-16.367 0 l0 -28.223 l16.367 0 l0 5.1563 z M98.6673046875 40 l-7.3438 -12.422 l-1.6992 0 l0 12.422 l-5.8594 0 l0 -28.223 l10.234 0 c6.3867 0 9.082 3.7695 9.082 8.4375 c0 3.7891 -2.1484 6.25 -5.9766 7.0703 l8.4961 12.715 l-6.9336 0 z M89.6240046875 16.641 l0 6.7383 l3.457 0 c3.125 0 4.3945 -1.3281 4.3945 -3.3594 c0 -2.0117 -1.2695 -3.3789 -4.3945 -3.3789 l-3.457 0 z M123.06603125 40.39063 c-8.1445 0 -14.141 -5.625 -14.141 -14.434 c0 -8.9258 6.1328 -14.57 14.434 -14.57 c5.4492 0 9.9609 2.4023 12.422 6.6406 l-5.1367 2.7344 c-1.4844 -2.8906 -4.1406 -4.2773 -7.2852 -4.2773 c-4.8828 0 -8.5547 3.3594 -8.5547 9.3359 c0 5.7617 3.4375 9.4727 8.7695 9.4727 c3.6133 0 6.9336 -1.7969 7.7344 -5.918 l-7.7148 0 l0 -4.707 l13.262 0 l0 15.332 l-4.6094 0 l0 -3.9063 c-1.8164 2.6758 -4.8633 4.2969 -9.1797 4.2969 z M158.7942578125 40 l-7.3438 -12.422 l-1.6992 0 l0 12.422 l-5.8594 0 l0 -28.223 l10.234 0 c6.3867 0 9.082 3.7695 9.082 8.4375 c0 3.7891 -2.1484 6.25 -5.9766 7.0703 l8.4961 12.715 l-6.9336 0 z M149.7509578125 16.641 l0 6.7383 l3.457 0 c3.125 0 4.3945 -1.3281 4.3945 -3.3594 c0 -2.0117 -1.2695 -3.3789 -4.3945 -3.3789 l-3.457 0 z M183.485984375 40.39063 c-8.3008 0 -14.434 -5.6641 -14.434 -14.512 c0 -8.8672 6.1328 -14.492 14.434 -14.492 c8.2813 0 14.414 5.625 14.414 14.492 c0 8.8477 -6.1328 14.512 -14.414 14.512 z M183.485984375 35.0195 c4.8633 0 8.5938 -3.418 8.5938 -9.1406 c0 -5.7031 -3.7305 -9.1016 -8.5938 -9.1016 s-8.5938 3.3984 -8.5938 9.1016 c0 5.7227 3.7305 9.1406 8.5938 9.1406 z M208.8427859375 40 l-7.3828 -28.223 l6.0938 0 l5.5078 21.367 l6.3086 -21.367 l4.9414 0 l6.2695 21.367 l5.5664 -21.367 l6.0742 0 l-7.3828 28.223 l-7.5391 0 l-5.4688 -17.441 l-5.4492 17.441 l-7.5391 0 z"
         id="path26"
         style="fill-opacity:1;fill:url(#linearGradient48)" />
      <path
         d="M7.9297 20.19531 c-4.0723 0 -7.0703 -2.8125 -7.0703 -7.2168 c0 -4.4629 3.0664 -7.2852 7.2168 -7.2852 c2.7246 0 4.9805 1.2012 6.2109 3.3203 l-2.5684 1.3672 c-0.74219 -1.4453 -2.0703 -2.1387 -3.6426 -2.1387 c-2.4414 0 -4.2773 1.6797 -4.2773 4.668 c0 2.8809 1.7188 4.7363 4.3848 4.7363 c1.8066 0 3.4668 -0.89844 3.8672 -2.959 l-3.8574 0 l0 -2.3535 l6.6309 0 l0 7.666 l-2.3047 0 l0 -1.9531 c-0.9082 1.3379 -2.4316 2.1484 -4.5898 2.1484 z M25.31245625 20 l-3.6719 -6.2109 l-0.84961 0 l0 6.2109 l-2.9297 0 l0 -14.111 l5.1172 0 c3.1934 0 4.541 1.8848 4.541 4.2188 c0 1.8945 -1.0742 3.125 -2.9883 3.5352 l4.248 6.3574 l-3.4668 0 z M20.79105625 8.32 l0 3.3691 l1.7285 0 c1.5625 0 2.1973 -0.66406 2.1973 -1.6797 c0 -1.0059 -0.63477 -1.6895 -2.1973 -1.6895 l-1.7285 0 z M37.1777625 20.19531 c-4.1504 0 -7.2168 -2.832 -7.2168 -7.2559 c0 -4.4336 3.0664 -7.2461 7.2168 -7.2461 c4.1406 0 7.207 2.8125 7.207 7.2461 c0 4.4238 -3.0664 7.2559 -7.207 7.2559 z M37.1777625 17.5098 c2.4316 0 4.2969 -1.709 4.2969 -4.5703 c0 -2.8516 -1.8652 -4.5508 -4.2969 -4.5508 s-4.2969 1.6992 -4.2969 4.5508 c0 2.8613 1.8652 4.5703 4.2969 4.5703 z M49.37500625 20 l-3.6914 -14.111 l3.0469 0 l2.7539 10.684 l3.1543 -10.684 l2.4707 0 l3.1348 10.684 l2.7832 -10.684 l3.0371 0 l-3.6914 14.111 l-3.7695 0 l-2.7344 -8.7207 l-2.7246 8.7207 l-3.7695 0 z M68.320340625 20 l0 -14.111 l2.9297 0 l0 14.111 l-2.9297 0 z M84.53140625 5.888999999999999 l2.9199 0 l0 14.111 l-3.3887 0 l-6.25 -10.088 l0 10.088 l-2.9199 0 l0 -14.111 l3.3496 0 l6.2891 10.029 l0 -10.029 z M97.20704375 20.19531 c-4.0723 0 -7.0703 -2.8125 -7.0703 -7.2168 c0 -4.4629 3.0664 -7.2852 7.2168 -7.2852 c2.7246 0 4.9805 1.2012 6.2109 3.3203 l-2.5684 1.3672 c-0.74219 -1.4453 -2.0703 -2.1387 -3.6426 -2.1387 c-2.4414 0 -4.2773 1.6797 -4.2773 4.668 c0 2.8809 1.7188 4.7363 4.3848 4.7363 c1.8066 0 3.4668 -0.89844 3.8672 -2.959 l-3.8574 0 l0 -2.3535 l6.6309 0 l0 7.666 l-2.3047 0 l0 -1.9531 c-0.9082 1.3379 -2.4316 2.1484 -4.5898 2.1484 z M120.5178125 5.888999999999999 l0 2.5781 l-3.3496 0 l0 11.533 l-2.9004 0 l0 -11.533 l-3.3691 0 l0 -2.5781 l9.6191 0 z M128.984403125 20.19531 c-4.1504 0 -7.2168 -2.832 -7.2168 -7.2559 c0 -4.4336 3.0664 -7.2461 7.2168 -7.2461 c4.1406 0 7.207 2.8125 7.207 7.2461 c0 4.4238 -3.0664 7.2559 -7.207 7.2559 z M128.984403125 17.5098 c2.4316 0 4.2969 -1.709 4.2969 -4.5703 c0 -2.8516 -1.8652 -4.5508 -4.2969 -4.5508 s-4.2969 1.6992 -4.2969 4.5508 c0 2.8613 1.8652 4.5703 4.2969 4.5703 z M144.990246875 20.19531 c-4.0723 0 -7.0703 -2.8125 -7.0703 -7.2168 c0 -4.4629 3.0664 -7.2852 7.2168 -7.2852 c2.7246 0 4.9805 1.2012 6.2109 3.3203 l-2.5684 1.3672 c-0.74219 -1.4453 -2.0703 -2.1387 -3.6426 -2.1387 c-2.4414 0 -4.2773 1.6797 -4.2773 4.668 c0 2.8809 1.7188 4.7363 4.3848 4.7363 c1.8066 0 3.4668 -0.89844 3.8672 -2.959 l-3.8574 0 l0 -2.3535 l6.6309 0 l0 7.666 l-2.3047 0 l0 -1.9531 c-0.9082 1.3379 -2.4316 2.1484 -4.5898 2.1484 z M163.105703125 8.467 l-5.2344 0 l0 3.2031 l4.6387 0 l0 2.5488 l-4.6387 0 l0 3.1934 l5.2344 0 l0 2.5879 l-8.1836 0 l0 -14.111 l8.1836 0 l0 2.5781 z M174.306875 5.888999999999999 l0 2.5781 l-3.3496 0 l0 11.533 l-2.9004 0 l0 -11.533 l-3.3691 0 l0 -2.5781 l9.6191 0 z M185.420265625 5.888999999999999 l2.9297 0 l0 14.111 l-2.9297 0 l0 -5.8008 l-5.9668 0 l0 5.8008 l-2.9297 0 l0 -14.111 l2.9297 0 l0 5.7617 l5.9668 0 l0 -5.7617 z M200.18578125 8.467 l-5.2344 0 l0 3.2031 l4.6387 0 l0 2.5488 l-4.6387 0 l0 3.1934 l5.2344 0 l0 2.5879 l-8.1836 0 l0 -14.111 l8.1836 0 l0 2.5781 z M210.654253125 20 l-3.6719 -6.2109 l-0.84961 0 l0 6.2109 l-2.9297 0 l0 -14.111 l5.1172 0 c3.1934 0 4.541 1.8848 4.541 4.2188 c0 1.8945 -1.0742 3.125 -2.9883 3.5352 l4.248 6.3574 l-3.4668 0 z M206.132853125 8.32 l0 3.3691 l1.7285 0 c1.5625 0 2.1973 -0.66406 2.1973 -1.6797 c0 -1.0059 -0.63477 -1.6895 -2.1973 -1.6895 l-1.7285 0 z M226.152371875 20.19531 c-3.0273 0 -5.3906 -1.4551 -5.8203 -4.1016 l3.0273 -0.69336 c0.19531 1.582 1.3574 2.4023 2.9102 2.4023 c1.1914 0 2.1387 -0.52734 2.1289 -1.7188 c-0.0097656 -1.3281 -1.5723 -1.748 -3.291 -2.2754 c-2.0703 -0.64453 -4.2871 -1.4063 -4.2871 -4.0039 c0 -2.627 2.1484 -4.1113 4.9805 -4.1113 c2.4805 0 4.9805 1.0059 5.5469 3.7109 l-2.832 0.70313 c-0.26367 -1.4063 -1.2109 -2.0215 -2.5391 -2.0215 c-1.1816 0 -2.1875 0.48828 -2.1875 1.6504 c0 1.084 1.3867 1.4453 2.9883 1.9238 c2.1289 0.64453 4.6484 1.4648 4.6484 4.2773 c0 2.998 -2.5098 4.2578 -5.2734 4.2578 z M239.3554875 20.19531 c-3.0957 0 -5.5176 -1.582 -5.5176 -5.1367 l0 -9.1699 l2.9297 0 l0 8.7695 c0 2.1484 1.1426 2.9492 2.5879 2.9492 c1.4551 0 2.6074 -0.81055 2.6074 -2.9492 l0 -8.7695 l2.9297 0 l0 9.1699 c0 3.5547 -2.4316 5.1367 -5.5371 5.1367 z M252.93948125 20.19531 c-3.0273 0 -5.3906 -1.4551 -5.8203 -4.1016 l3.0273 -0.69336 c0.19531 1.582 1.3574 2.4023 2.9102 2.4023 c1.1914 0 2.1387 -0.52734 2.1289 -1.7188 c-0.0097656 -1.3281 -1.5723 -1.748 -3.291 -2.2754 c-2.0703 -0.64453 -4.2871 -1.4063 -4.2871 -4.0039 c0 -2.627 2.1484 -4.1113 4.9805 -4.1113 c2.4805 0 4.9805 1.0059 5.5469 3.7109 l-2.832 0.70313 c-0.26367 -1.4063 -1.2109 -2.0215 -2.5391 -2.0215 c-1.1816 0 -2.1875 0.48828 -2.1875 1.6504 c0 1.084 1.3867 1.4453 2.9883 1.9238 c2.1289 0.64453 4.6484 1.4648 4.6484 4.2773 c0 2.998 -2.5098 4.2578 -5.2734 4.2578 z M269.101796875 5.888999999999999 l0 2.5781 l-3.3496 0 l0 11.533 l-2.9004 0 l0 -11.533 l-3.3691 0 l0 -2.5781 l9.6191 0 z M280.7621875 20 l-1.0254 -2.9102 l-5.9277 0 l-1.0254 2.9102 l-2.998 0 l5.1953 -14.111 l3.584 0 l5.1953 14.111 l-2.998 0 z M274.6679875 14.6387 l4.209 0 l-2.0996 -5.9863 z M285.878934375 20 l0 -14.111 l2.9297 0 l0 14.111 l-2.9297 0 z M302.09 5.888999999999999 l2.9199 0 l0 14.111 l-3.3887 0 l-6.25 -10.088 l0 10.088 l-2.9199 0 l0 -14.111 l3.3496 0 l6.2891 10.029 l0 -10.029 z M318.1059375 20 l-1.0254 -2.9102 l-5.9277 0 l-1.0254 2.9102 l-2.998 0 l5.1953 -14.111 l3.584 0 l5.1953 14.111 l-2.998 0 z M312.0117375 14.6387 l4.209 0 l-2.0996 -5.9863 z M330.800784375 12.5488 c1.5918 0.43945 2.6563 1.4844 2.6563 3.4961 c0 2.3828 -1.4453 3.9551 -4.4238 3.9551 l-5.8105 0 l0 -14.111 l4.5703 0 c3.0469 0 4.6484 1.4648 4.6484 3.8672 c0 1.2402 -0.53711 2.2559 -1.6406 2.793 z M327.822284375 8.32 l-1.7773 0 l0 3.3203 l1.9043 0 c1.25 0 1.7969 -0.74219 1.7969 -1.6992 c0 -0.9375 -0.61523 -1.6211 -1.9238 -1.6211 z M328.486284375 17.4902 c1.582 0 2.1289 -0.84961 2.1289 -1.7676 c0 -0.9375 -0.53711 -1.8262 -2.1875 -1.8262 l-2.3828 0 l0 3.5938 l2.4414 0 z M338.99418125 17.4121 l4.4238 0 l0 2.5879 l-7.3535 0 l0 -14.111 l2.9297 0 l0 11.523 z M356.240125 5.888999999999999 l-4.6387 7.3535 l0 6.7578 l-2.9395 0 l0 -6.6895 l-4.668 -7.4219 l3.2422 0 l2.8809 4.8047 l2.8906 -4.8047 l3.2324 0 z"
         id="path27"
         style="fill:url(#linearGradient48);fill-opacity:1"
         transform="matrix(0.53704366,0,0,0.53704366,27.048338,46.500095)" />
    </g>
  </g>
</svg>
