<?xml version="1.0" encoding="UTF-8" standalone="no"?>
<!-- Uploaded to: SVG Repo, www.svgrepo.com, Generator: SVG Repo Mixer Tools -->

<svg
   fill="#000000"
   width="800px"
   height="800px"
   viewBox="0 0 24 24"
   version="1.1"
   id="svg2"
   sodipodi:docname="people.svg"
   inkscape:version="1.3.2 (091e20ef0f, 2023-11-25, custom)"
   xmlns:inkscape="http://www.inkscape.org/namespaces/inkscape"
   xmlns:sodipodi="http://sodipodi.sourceforge.net/DTD/sodipodi-0.dtd"
   xmlns:xlink="http://www.w3.org/1999/xlink"
   xmlns="http://www.w3.org/2000/svg"
   xmlns:svg="http://www.w3.org/2000/svg">
  <defs
     id="defs2">
    <linearGradient
       id="linearGradient2"
       inkscape:collect="always">
      <stop
         style="stop-color:#7bcb84;stop-opacity:1;"
         offset="0"
         id="stop2" />
      <stop
         style="stop-color:#92b9b8;stop-opacity:1;"
         offset="1"
         id="stop3" />
    </linearGradient>
    <linearGradient
       inkscape:collect="always"
       xlink:href="#linearGradient2"
       id="linearGradient3"
       x1="0.090174787"
       y1="0.20537606"
       x2="24.103285"
       y2="24.101694"
       gradientUnits="userSpaceOnUse" />
  </defs>
  <sodipodi:namedview
     id="namedview2"
     pagecolor="#ffffff"
     bordercolor="#000000"
     borderopacity="0.25"
     inkscape:showpageshadow="2"
     inkscape:pageopacity="0.0"
     inkscape:pagecheckerboard="0"
     inkscape:deskcolor="#d1d1d1"
     inkscape:zoom="0.295"
     inkscape:cx="398.30508"
     inkscape:cy="400"
     inkscape:window-width="1259"
     inkscape:window-height="1522"
     inkscape:window-x="0"
     inkscape:window-y="0"
     inkscape:window-maximized="1"
     inkscape:current-layer="g2" />
  <g
     id="g2"
     style="fill-opacity:1;fill:url(#linearGradient3)">
    <path
       d="M.221 16.268a15.064 15.064 0 0 0 1.789 1.9C2.008 18.111 2 18.057 2 18a5.029 5.029 0 0 1 3.233-4.678 1 1 0 0 0 .175-1.784A2.968 2.968 0 0 1 4 9a2.988 2.988 0 0 1 5.022-2.2 5.951 5.951 0 0 1 2.022-.715 4.994 4.994 0 1 0-7.913 6.085 7.07 7.07 0 0 0-2.91 4.098zM23.779 16.268a7.07 7.07 0 0 0-2.91-4.1 4.994 4.994 0 1 0-7.913-6.086 5.949 5.949 0 0 1 2.022.715 2.993 2.993 0 1 1 3.614 4.74 1 1 0 0 0 .175 1.784A5.029 5.029 0 0 1 22 18c0 .057-.008.111-.01.167a15.065 15.065 0 0 0 1.789-1.899z"
       id="path1"
       style="fill-opacity:1;fill:url(#linearGradient3)" />
    <path
       d="M18.954 20.284a7.051 7.051 0 0 0-3.085-5.114A4.956 4.956 0 0 0 17 12a5 5 0 1 0-8.869 3.17 7.051 7.051 0 0 0-3.085 5.114 14.923 14.923 0 0 0 1.968.849C7.012 21.088 7 21.046 7 21a5.031 5.031 0 0 1 3.233-4.678 1 1 0 0 0 .175-1.785A2.964 2.964 0 0 1 9 12a3 3 0 1 1 6 0 2.964 2.964 0 0 1-1.408 2.537 1 1 0 0 0 .175 1.785A5.031 5.031 0 0 1 17 21c0 .046-.012.088-.013.133a14.919 14.919 0 0 0 1.967-.849z"
       id="path2"
       style="fill-opacity:1;fill:url(#linearGradient3)" />
  </g>
</svg>
